<svg width="20" height="20" fill="none" xmlns="http://www.w3.org/2000/svg"><path fill-rule="evenodd" clip-rule="evenodd" d="M7.353.938854c.13845.138666.23311.314946.27222.506956.03911.192.02096.39127-.05222.57304-.58546 1.45505-.7303 3.0501-.41651 4.5868.31379 1.53671 1.07236 2.94728 2.1814 4.05635 1.10901 1.109 2.51961 1.8676 4.05631 2.1814 1.5367.3138 3.1318.1689 4.5868-.4165.1818-.0731.381-.0911.5729-.0519.192.0392.3682.1339.5067.2724.1386.1385.2335.3146.2728.5065.0394.1919.0215.3911-.0514.573-.7445 1.8525-2.0263 3.4398-3.6804 4.5578-1.6542 1.1179-3.6051 1.7152-5.6016 1.7152-5.523 0-10-4.477-10-10.00005 0-4.207 2.598-7.805 6.273-9.281996.18177-.073175.38104-.091335.57305-.052222.192.039112.36829.133772.50695.272222v.001Z" fill="#CFCFCF"/></svg>