<svg width="28" height="28" fill="none" xmlns="http://www.w3.org/2000/svg"><path fill-rule="evenodd" clip-rule="evenodd" d="M14 0c.3713 0 .7274.147499.99.41005.2625.262551.41.61865.41.98995v1.4c0 .3713-.1475.7274-.41.98995-.2626.26255-.6187.41005-.99.41005-.3713 0-.7274-.1475-.9899-.41005C12.7475 3.5274 12.6 3.1713 12.6 2.8V1.4c0-.18385.0362-.3659.1066-.535757.0703-.169856.1734-.324191.3035-.454193.13-.130002.2843-.233125.4541-.303481C13.6341.036212 13.8161 0 14 0ZM4.1 4.1c.13-.13002.28435-.23315.45421-.30352.16987-.07036.35193-.10658.53579-.10658.18386 0 .36592.03622.53579.10658.16986.07037.32421.1735.45421.30352l.99.99c.13001.13001.23314.28435.3035.45422.07036.16986.10657.35192.10657.53578 0 .18386-.03621.36592-.10657.53578-.07036.16987-.17349.32421-.3035.45422-.13001.13001-.28435.23314-.45422.3035-.16986.07036-.35192.10657-.53578.10657-.18386 0-.36592-.03621-.53578-.10657-.16987-.07036-.32421-.17349-.45422-.3035l-.99-.99c-.13002-.13-.23315-.28435-.30352-.45421-.07036-.16987-.10658-.35193-.10658-.53579 0-.18386.03622-.36592.10658-.53579C3.86685 4.38435 3.96998 4.23 4.1 4.1Zm19.8 0c.13.13.2332.28435.3035.45421.0704.16987.1066.35193.1066.53579 0 .18386-.0362.36592-.1066.53579-.0703.16986-.1735.32421-.3035.45421l-.99.99c-.2626.26256-.6187.41007-.99.41007-.3713 0-.7274-.14751-.99-.41007-.2626-.26256-.4101-.61868-.4101-.99s.1475-.72744.4101-.99l.99-.99c.13-.13002.2843-.23315.4542-.30352.1699-.07036.3519-.10658.5358-.10658.1839 0 .3659.03622.5358.10658.1699.07037.3242.1735.4542.30352ZM7 14c0-1.8565.7375-3.637 2.05025-4.94975C10.363 7.7375 12.1435 7 14 7s3.637.7375 4.9497 2.05025C20.2625 10.363 21 12.1435 21 14s-.7375 3.637-2.0503 4.9497C17.637 20.2625 15.8565 21 14 21s-3.637-.7375-4.94975-2.0503C7.7375 17.637 7 15.8565 7 14Zm-7 0c0-.3713.147499-.7274.41005-.9899.262551-.2626.61865-.4101.98995-.4101h1.4c.18385 0 .3659.0362.53576.1066.16985.0703.32419.1734.45419.3035.13.13.23313.2843.30348.4541.07036.1699.10657.3519.10657.5358 0 .1839-.03621.3659-.10657.5358-.07035.1698-.17348.3241-.30348.4542-.13.13-.28434.2331-.45419.3034-.16986.0704-.35191.1066-.53576.1066H1.4c-.3713 0-.727399-.1475-.98995-.41C.147499 14.7274 0 14.3713 0 14Zm23.8 0c0-.3713.1475-.7274.4101-.9899.2625-.2626.6186-.4101.9899-.4101h1.4c.1839 0 .3659.0362.5358.1066.1698.0703.3241.1734.4541.3035.1301.13.2332.2843.3035.4541.0704.1699.1066.3519.1066.5358 0 .1839-.0362.3659-.1066.5358-.0703.1698-.1734.3241-.3035.4542-.13.13-.2843.2331-.4541.3034-.1699.0704-.3519.1066-.5358.1066h-1.4c-.3713 0-.7274-.1475-.9899-.41-.2626-.2626-.4101-.6187-.4101-.99Zm-2.87 6.93c.13-.13.2843-.2332.4542-.3035.1699-.0704.3519-.1066.5358-.1066.1839 0 .3659.0362.5358.1066.1699.0703.3242.1735.4542.3035l.99.99c.13.13.2331.2844.3035.4542.0704.1699.1066.3519.1066.5358 0 .1839-.0362.3659-.1066.5358-.0704.1698-.1735.3242-.3035.4542s-.2844.2331-.4542.3035c-.1699.0704-.3519.1066-.5358.1066-.1839 0-.3659-.0362-.5358-.1066-.1698-.0704-.3242-.1735-.4542-.3035l-.99-.99c-.13-.13-.2332-.2843-.3035-.4542-.0704-.1699-.1066-.3519-.1066-.5358 0-.1839.0362-.3659.1066-.5358.0703-.1699.1735-.3242.3035-.4542Zm-15.84 0c.26256-.2626.61868-.4101.99-.4101s.72744.1475.99.4101c.26256.2626.41007.6187.41007.99 0 .3713-.14751.7274-.41007.99l-.99.99c-.13001.13-.28435.2331-.45422.3035-.16986.0704-.35192.1066-.53578.1066-.18386 0-.36592-.0362-.53578-.1066-.16987-.0704-.32421-.1735-.45422-.3035-.13001-.13-.23314-.2844-.3035-.4542-.07036-.1699-.10657-.3519-.10657-.5358 0-.1839.03621-.3659.10657-.5358.07036-.1698.17349-.3242.3035-.4542l.99-.99ZM14 23.8c.3713 0 .7274.1475.99.4101.2625.2625.41.6186.41.9899v1.4c0 .3713-.1475.7274-.41.9899-.2626.2626-.6187.4101-.99.4101-.3713 0-.7274-.1475-.9899-.4101-.2626-.2625-.4101-.6186-.4101-.9899v-1.4c0-.3713.1475-.7274.4101-.9899.2625-.2626.6186-.4101.9899-.4101Z" fill="#CFCFCF"/></svg>